<svg xmlns="http://www.w3.org/2000/svg" width="40" height="40" viewBox="0 0 40 40">
  <rect x="0.5" y="0.5" width="39" height="39" rx="7.25" fill="#000000" stroke="#4C4C4C"/>
  <path d="M5.199999999999999 25.09390841727916 7.365487317277685 14.906091582720835H11.865951495392444Q12.91627785340987 14.906091582720835 13.57643168970825 15.205528368898182Q14.236585526006632 15.50496515507553 14.492499237415169 16.067314647240657Q14.748412948823706 16.629664139405783 14.582737535127762 17.409105679080017Q14.395747871438482 18.288822881033852 13.836846709537944 18.87934014819858Q13.277945547637408 19.469857415363307 12.426649393906203 19.67981147091388L12.461675357044793 19.397087295116464Q13.10464646157176 19.55098384080012 13.528571576194038 19.913755148869065Q13.952496690816316 20.276526456938008 14.119895543887289 20.80451045524413Q14.28729439695826 21.332494453550254 14.1428150347466 22.012216411209472Q13.979256431729542 22.781699139627758 13.593411508160312 23.358741675908398Q13.20756658459108 23.935784212189038 12.631322446375766 24.322545142662598Q12.05507830816045 24.709306073136162 11.350777024742097 24.90160724520766Q10.646475741323746 25.09390841727916 9.846004418608448 25.09390841727916ZM7.979572594053398 23.02877377360698H10.197638193556841Q10.610514465401703 23.02877377360698 10.92313502884205 22.900085163559368Q11.235755592282398 22.771396553511753 11.445250998732778 22.512940040251248Q11.654746405183158 22.254483526990743 11.731967039434021 21.8911890060211Q11.803000567064093 21.557002533150193 11.687474121043763 21.324555208558724Q11.571947675023432 21.092107883967255 11.295722762154167 20.966518133349346Q11.019497849284903 20.840928382731434 10.589908967060106 20.840928382731434H8.444613487803508ZM8.837390532062551 18.993057673998386H10.650870430183335Q11.02899701533464 18.993057673998386 11.322275348513205 18.868547216545757Q11.615553681691768 18.74403675909313 11.80162970830209 18.517787153361063Q11.98770573491241 18.291537547628998 12.053469799298675 17.982141950195704Q12.153603573278742 17.511049582153362 11.895520775256985 17.241137904273188Q11.637437977235228 16.971226226393018 10.989538734269896 16.971226226393018H9.267144072841873Z M22.010388122558055 25.09390841727916 24.175875439835742 14.906091582720835H26.650190997684L24.484703680406312 25.09390841727916ZM15.693451339595073 25.09390841727916 17.85893865687276 14.906091582720835H20.33325421472102L18.167766897443332 25.09390841727916ZM17.505790304585428 21.122328092595158 17.985075904010003 18.906779955503573H24.642462613431057L24.171533319196445 21.122328092595158Z M27.322116555040928 25.09390841727916 29.487603872318616 14.906091582720835H31.961919430166876L30.26025665712602 22.911785500947442H34.8L34.33617545576317 25.09390841727916Z" fill="#FFFFFF"/>
</svg>
