<svg xmlns="http://www.w3.org/2000/svg" width="16" height="16" viewBox="0 0 16 16">
  <rect width="16" height="16" rx="3" fill="#000000"/>
  <path d="M5.12 11.57Q4.87 11.57 4.66 11.51Q4.44 11.44 4.28 11.32Q4.12 11.2 4.03 11.04Q3.94 10.89 3.94 10.71L4.2 10.64L3.95 11.49H2.91L4.01 6.32H5.13L4.64 8.67L4.42 8.59Q4.5 8.41 4.66 8.25Q4.81 8.09 5.02 7.97Q5.22 7.85 5.45 7.78Q5.68 7.71 5.92 7.71Q6.4 7.71 6.72 7.96Q7.05 8.21 7.17 8.64Q7.29 9.08 7.17 9.64Q7.05 10.21 6.75 10.64Q6.44 11.08 6.02 11.33Q5.6 11.57 5.12 11.57ZM5.03 10.63Q5.28 10.63 5.5 10.51Q5.71 10.38 5.86 10.16Q6.01 9.94 6.08 9.64Q6.14 9.34 6.09 9.12Q6.03 8.9 5.87 8.78Q5.71 8.66 5.45 8.66Q5.19 8.66 4.98 8.78Q4.76 8.9 4.61 9.12Q4.46 9.34 4.39 9.64Q4.33 9.94 4.39 10.16Q4.45 10.38 4.61 10.51Q4.77 10.63 5.03 10.63Z M7.51 11.5 8.61 6.32H9.72L9.24 8.54L9 8.62Q9.13 8.37 9.37 8.16Q9.62 7.95 9.92 7.83Q10.23 7.71 10.54 7.71Q10.96 7.71 11.21 7.88Q11.46 8.05 11.53 8.39Q11.61 8.72 11.5 9.22L11.02 11.5H9.9L10.36 9.31Q10.41 9.09 10.38 8.94Q10.34 8.79 10.23 8.72Q10.11 8.65 9.93 8.65Q9.78 8.65 9.64 8.7Q9.51 8.74 9.4 8.83Q9.29 8.92 9.21 9.03Q9.14 9.14 9.11 9.27L8.64 11.5H8.08Q7.89 11.5 7.74 11.5Q7.6 11.5 7.51 11.5Z M11.96 11.5 13.06 6.32H14.19L13.09 11.5Z" fill="#FFFFFF"/>
</svg>
