<svg xmlns="http://www.w3.org/2000/svg" width="16" height="16" viewBox="0 0 16 16">
  <rect width="16" height="16" rx="3.00" fill="#000000"/>
  <path d="M2.08 10.037563366911666 2.9461949269110743 5.962436633088337H4.746380598156978Q5.166511141363948 5.962436633088337 5.4305726758833 6.082211347559276Q5.694634210402652 6.2019860620302145 5.796999694966067 6.426925858896265Q5.899365179529482 6.651865655762316 5.833095014051105 6.963642271632009Q5.758299148575393 7.315529152413544 5.534738683815178 7.551736059279435Q5.3111782190549635 7.7879429661453266 4.970659757562482 7.8719245883655535L4.984670142817917 7.758834918046588Q5.241858584628703 7.820393536320051 5.411428630477615 7.965502059547628Q5.5809986763265265 8.110610582775205 5.6479582175549154 8.321804182097654Q5.714917758783304 8.532997781420104 5.65712601389864 8.804886564483791Q5.591702572691817 9.112679655851105 5.4373646032641245 9.343496670363361Q5.283026633836432 9.574313684875618 5.052528978550306 9.729018057065042Q4.82203132326418 9.883722429254467 4.540310809896839 9.960642898083066Q4.258590296529499 10.037563366911666 3.9384017674433798 10.037563366911666ZM3.191829037621359 9.211509509442793H4.079055277422737Q4.2442057861606814 9.211509509442793 4.369254011536821 9.160034065423748Q4.49430223691296 9.108558621404704 4.5781003994931115 9.005176016100503Q4.661898562073263 8.9017934107963 4.692786815773609 8.756475602408441Q4.721200226825637 8.62280101326008 4.674989648417505 8.529822083423493Q4.628779070009373 8.436843153586905 4.518289104861667 8.38660725333974Q4.407799139713961 8.336371353092577 4.235963586824043 8.336371353092577H3.3778453951214034ZM3.534956212825021 7.597223069599357H4.260348172073335Q4.411598806133856 7.597223069599357 4.528910139405282 7.547418886618306Q4.646221472676707 7.497614703637256 4.720651883320836 7.407114861344429Q4.795082293964965 7.316615019051602 4.82138791971947 7.192856780078284Q4.861441429311498 7.004419832861348 4.758208310102795 6.896455161709278Q4.654975190894092 6.788490490557209 4.395815493707959 6.788490490557209H3.706857629136749Z M8.804155249023223 10.037563366911666 9.670350175934297 5.962436633088337H10.660076399073601L9.793881472162527 10.037563366911666ZM6.277380535838031 10.037563366911666 7.143575462749105 5.962436633088337H8.133301685888409L7.267106758977334 10.037563366911666ZM7.002316121834172 8.448931237038066 7.194030361604002 7.562711982201432H9.856985045372422L9.668613327678578 8.448931237038066Z M10.928846622016373 10.037563366911666 11.795041548927447 5.962436633088337H12.78476777206675L12.104102662850408 9.16471420037898H13.919999999999998L13.734470182305266 10.037563366911666Z" fill="#FFFFFF"/>
</svg>
